{
	"asset":{
		"generator":"Khronos glTF Blender I/O v4.1.63",
		"version":"2.0"
	},
	"scene":0,
	"scenes":[
		{
			"name":"Scene",
			"nodes":[
				0
			]
		}
	],
	"nodes":[
		{
			"mesh":0,
			"name":"Top Curtain All Modifiers Applied",
			"rotation":[
				0,
				0,
				-0.5847474932670593,
				0.8112154006958008
			],
			"scale":[
				2.273045778274536,
				2.5034050941467285,
				2.530707836151123
			],
			"translation":[
				-0.663327157497406,
				2.991515636444092,
				1.2361239194869995
			]
		}
	],
	"materials":[
		{
			"doubleSided":true,
			"name":"Top Curtain Material",
			"pbrMetallicRoughness":{
				"baseColorFactor":[
					0.3277764320373535,
					0,
					0.00030353371403180063,
					1
				],
				"metallicFactor":0
			}
		}
	],
	"meshes":[
		{
			"name":"Plane.002",
			"primitives":[
				{
					"attributes":{
						"POSITION":0,
						"NORMAL":1,
						"TEXCOORD_0":2
					},
					"indices":3,
					"material":0
				}
			]
		}
	],
	"accessors":[
		{
			"bufferView":0,
			"componentType":5126,
			"count":369752,
			"max":[
				0.991101086139679,
				0.5224416255950928,
				0.4219996929168701
			],
			"min":[
				-0.9665685892105103,
				-0.45183664560317993,
				-7.283328056335449
			],
			"type":"VEC3"
		},
		{
			"bufferView":1,
			"componentType":5126,
			"count":369752,
			"type":"VEC3"
		},
		{
			"bufferView":2,
			"componentType":5126,
			"count":369752,
			"type":"VEC2"
		},
		{
			"bufferView":3,
			"componentType":5125,
			"count":624576,
			"type":"SCALAR"
		}
	],
	"bufferViews":[
		{
			"buffer":0,
			"byteLength":4437024,
			"byteOffset":0,
			"target":34962
		},
		{
			"buffer":0,
			"byteLength":4437024,
			"byteOffset":4437024,
			"target":34962
		},
		{
			"buffer":0,
			"byteLength":2958016,
			"byteOffset":8874048,
			"target":34962
		},
		{
			"buffer":0,
			"byteLength":2498304,
			"byteOffset":11832064,
			"target":34963
		}
	],
	"buffers":[
		{
			"byteLength":14330368,
			"uri":"top%20curtain.bin"
		}
	]
}
